<?xml version="1.0" encoding="UTF-8"?>
<svg id="Layer_1" data-name="Layer 1" xmlns="http://www.w3.org/2000/svg" xmlns:xlink="http://www.w3.org/1999/xlink" viewBox="0 0 532.2 216.13">
  <defs>
    <style>
      .cls-1 {
        fill: url(#linear-gradient-2);
      }

      .cls-2 {
        fill: url(#linear-gradient-6);
      }

      .cls-3 {
        fill: url(#linear-gradient-11);
      }

      .cls-4 {
        fill: url(#linear-gradient-10);
      }

      .cls-5 {
        fill: url(#linear-gradient-5);
      }

      .cls-6 {
        fill: url(#linear-gradient-7);
      }

      .cls-7 {
        fill: url(#linear-gradient-9);
      }

      .cls-8 {
        fill: url(#linear-gradient-3);
      }

      .cls-9 {
        fill: url(#linear-gradient);
      }

      .cls-10 {
        fill: url(#linear-gradient-4);
      }

      .cls-11 {
        fill: url(#linear-gradient-8);
      }

      .cls-12 {
        fill: url(#linear-gradient-12);
      }

      .cls-13 {
        fill: url(#linear-gradient-13);
      }
    </style>
    <linearGradient id="linear-gradient" x1="88.86" y1="69.33" x2="443.34" y2="69.33" gradientUnits="userSpaceOnUse">
      <stop offset=".12" stop-color="#0e00c5"/>
      <stop offset=".51" stop-color="#2bc2d6"/>
      <stop offset="1" stop-color="#eb00db"/>
    </linearGradient>
    <linearGradient id="linear-gradient-2" x1="-47.47" y1="174.19" x2="573.47" y2="171.12" xlink:href="#linear-gradient"/>
    <linearGradient id="linear-gradient-3" x1="-47.43" y1="180.45" x2="573.5" y2="177.39" xlink:href="#linear-gradient"/>
    <linearGradient id="linear-gradient-4" x1="-47.43" y1="180.6" x2="573.5" y2="177.53" xlink:href="#linear-gradient"/>
    <linearGradient id="linear-gradient-5" x1="-47.43" y1="180.82" x2="573.48" y2="177.76" xlink:href="#linear-gradient"/>
    <linearGradient id="linear-gradient-6" x1="-47.43" y1="180.62" x2="573.5" y2="177.56" xlink:href="#linear-gradient"/>
    <linearGradient id="linear-gradient-7" x1="-47.49" y1="170.07" x2="573.45" y2="167" xlink:href="#linear-gradient"/>
    <linearGradient id="linear-gradient-8" x1="-47.43" y1="180.99" x2="573.5" y2="177.92" xlink:href="#linear-gradient"/>
    <linearGradient id="linear-gradient-9" x1="-47.39" y1="189.69" x2="573.55" y2="186.62" xlink:href="#linear-gradient"/>
    <linearGradient id="linear-gradient-10" x1="-47.46" y1="175.9" x2="573.48" y2="172.84" xlink:href="#linear-gradient"/>
    <linearGradient id="linear-gradient-11" x1="-47.43" y1="182.18" x2="573.51" y2="179.11" xlink:href="#linear-gradient"/>
    <linearGradient id="linear-gradient-12" x1="-47.43" y1="181.95" x2="573.51" y2="178.88" xlink:href="#linear-gradient"/>
    <linearGradient id="linear-gradient-13" x1="-47.42" y1="182.66" x2="573.51" y2="179.6" xlink:href="#linear-gradient"/>
  </defs>
  <path class="cls-9" d="m394.95,122.42v-62.74c-11.95,2.99-23.75,5.94-35.71,8.93v4.54c0,9.22,0,18.44,0,27.66,0,3.8-1.25,4.8-4.82,3.73-13.65-4.1-27.54-7.12-41.64-9.16-21.46-3.11-43.02-3.96-64.68-2.81-23.94,1.27-47.4,5.23-70.38,12.01-3.44,1.01-4.81-.05-4.81-3.61-.01-6.74.05-13.48-.05-20.21-.02-1.49.52-2.04,1.83-2.54,15.88-5.99,32.25-10.17,48.93-13.15,23.27-4.15,46.73-5.3,70.31-4.17,6.22.3,12.42,1.03,18.62,1.55.76.06,1.53,0,2.34-.35-6.2-.84-12.39-1.79-18.6-2.51-13.6-1.59-27.23-2.59-40.93-2.51-27.34.16-54.25,3.44-80.6,10.93-1.15.33-2.54.37-3.7.08-26.23-6.52-52.45-13.09-78.66-19.69-.94-.24-1.97-.56-2.68-1.17-1.7-1.48-.8-4.01,1.65-4.64,5.62-1.46,11.26-2.84,16.89-4.26C157.75,25.91,207.24,13.55,256.69,1.06c7.78-1.96,15.21-.95,22.81.97,53.5,13.52,107.03,26.93,160.56,40.35,1.69.42,3.27.89,3.28,2.96,0,2.07-1.64,2.62-3.27,3.03-12.43,3.15-24.85,6.3-37.29,9.41-1.2.3-1.96.59-1.96,2.14.06,20.5.04,40.99.05,61.49,0,.28.05.56.09.98,2.4.25,2.79,1.83,2.71,3.92-.12,3.12,0,6.24-.04,9.36-.03,2.33-.63,2.93-2.88,2.96-1.91.03-3.83-.06-5.74.02-1.93.08-2.78-.98-2.82-2.69-.08-3.54-.04-7.09-.02-10.64,0-1.79,1-2.72,2.78-2.9Z"/>
  <g>
    <path class="cls-1" d="m0,148.66h17.43v34.49h19.15v15.91H0v-50.4Z"/>
    <path class="cls-8" d="m39.24,179.91c0-12.03,9.15-20.23,22.32-20.23,14.33,0,23.04,9.36,22.25,23.76h-28.66c.86,3.6,3.53,5.18,6.77,5.18,2.38,0,4.61-.86,5.83-2.3h15.41c-3.17,8.79-11.16,13.83-21.75,13.83-13.18,0-22.18-8.28-22.18-20.23Zm29.16-4.03c-.94-3.02-3.17-4.83-6.55-4.83s-5.69,1.58-6.62,4.83h13.18Z"/>
    <path class="cls-10" d="m87.7,187.98c0-7.06,5.04-11.74,13.03-11.74h12.24v-2.3c0-1.94-1.8-3.38-4.18-3.38-2.23,0-3.89,1.3-4.1,3.17h-15.12c1.15-9.22,7.85-14.04,19.3-14.04,12.96,0,20.09,6.19,20.09,17.71v21.67h-11.74l-1.66-4.18c-3.24,3.31-7.85,5.11-13.39,5.11-8.93,0-14.47-4.61-14.47-12.03Zm19.73,1.87c3.38,0,5.76-2.16,5.76-5.54v-.5h-5.76c-2.45,0-4.03,1.15-4.03,3.02s1.58,3.02,4.03,3.02Z"/>
    <path class="cls-5" d="m136.44,160.69h11.67l1.8,4.68c2.52-3.24,6.05-4.68,11.02-4.68h4.9v14.62h-5.04c-5.62,0-7.92,2.66-7.92,8.21v15.55h-16.42v-38.38Z"/>
    <path class="cls-2" d="m171.86,160.69h11.67l1.58,4.03c3.02-3.24,7.42-5.04,12.67-5.04,9.94,0,16.06,6.34,16.06,16.56v22.83h-16.42v-20.81c0-3.53-1.58-5.4-4.46-5.4s-4.68,1.94-4.68,5.62v20.59h-16.42v-38.38Z"/>
    <path class="cls-6" d="m229.61,138.29c5.54,0,9.36,3.67,9.36,9s-3.82,9.07-9.36,9.07-9.43-3.67-9.43-9.07,3.75-9,9.43-9Zm-8.21,22.39h16.42v38.38h-16.42v-38.38Z"/>
    <path class="cls-11" d="m246.02,160.69h11.67l1.58,4.03c3.02-3.24,7.42-5.04,12.67-5.04,9.94,0,16.06,6.34,16.06,16.56v22.83h-16.42v-20.81c0-3.53-1.58-5.4-4.46-5.4s-4.68,1.94-4.68,5.62v20.59h-16.42v-38.38Z"/>
    <path class="cls-7" d="m294.98,200.87h15.62c.36,2.16,2.38,3.31,5.47,3.31,3.89,0,5.76-1.94,5.76-6.05v-2.95c-2.88,1.73-6.41,2.67-10.37,2.67-10.8,0-18.29-7.71-18.29-19.08s7.49-19.08,18.29-19.08c5.47,0,10.08,1.8,13.39,4.97l1.51-3.96h11.74v36.36c0,12.53-8.35,19.08-21.82,19.08-12.75,0-20.81-5.69-21.31-15.27Zm20.67-15.55c3.74,0,6.34-2.66,6.34-6.48s-2.59-6.48-6.34-6.48-6.41,2.66-6.41,6.48,2.59,6.48,6.41,6.48Z"/>
    <path class="cls-4" d="m344.52,186.68l18.87-22.9-.07-.22-6.26.07h-11.81v-14.98h40.25v12.38l-18.79,22.9.07.22,6.99-.07h12.17v14.98h-41.4v-12.38Z"/>
    <path class="cls-3" d="m388.8,179.91c0-12.17,9.22-20.23,22.9-20.23s22.9,8.07,22.9,20.23-9.15,20.23-22.9,20.23-22.9-8.06-22.9-20.23Zm22.9,6.91c4.03,0,6.91-2.81,6.91-6.91s-2.88-6.99-6.91-6.99-6.91,2.81-6.91,6.99,2.88,6.91,6.91,6.91Z"/>
    <path class="cls-12" d="m440.42,160.69h11.67l1.58,4.03c3.02-3.24,7.42-5.04,12.67-5.04,9.94,0,16.06,6.34,16.06,16.56v22.83h-16.42v-20.81c0-3.53-1.58-5.4-4.46-5.4s-4.68,1.94-4.68,5.62v20.59h-16.42v-38.38Z"/>
    <path class="cls-13" d="m487.58,179.91c0-12.03,9.14-20.23,22.32-20.23,14.33,0,23.04,9.36,22.25,23.76h-28.66c.86,3.6,3.53,5.18,6.77,5.18,2.38,0,4.61-.86,5.83-2.3h15.41c-3.17,8.79-11.16,13.83-21.75,13.83-13.18,0-22.18-8.28-22.18-20.23Zm29.16-4.03c-.94-3.02-3.17-4.83-6.55-4.83s-5.69,1.58-6.62,4.83h13.18Z"/>
  </g>
</svg>