<?xml version="1.0" encoding="UTF-8"?>
<svg id="Layer_1" data-name="Layer 1" xmlns="http://www.w3.org/2000/svg" xmlns:xlink="http://www.w3.org/1999/xlink" viewBox="0 0 612 169.02">
  <defs>
    <style>
      .cls-1 {
        fill: url(#linear-gradient-2);
      }

      .cls-2 {
        fill: url(#linear-gradient-14);
      }

      .cls-3 {
        fill: url(#linear-gradient-6);
      }

      .cls-4 {
        fill: url(#linear-gradient-11);
      }

      .cls-5 {
        fill: url(#linear-gradient-10);
      }

      .cls-6 {
        fill: url(#linear-gradient-5);
      }

      .cls-7 {
        fill: url(#linear-gradient-7);
      }

      .cls-8 {
        fill: url(#linear-gradient-9);
      }

      .cls-9 {
        fill: url(#linear-gradient-3);
      }

      .cls-10 {
        fill: url(#linear-gradient);
      }

      .cls-11 {
        fill: url(#linear-gradient-4);
      }

      .cls-12 {
        fill: url(#linear-gradient-8);
      }

      .cls-13 {
        fill: url(#linear-gradient-12);
      }

      .cls-14 {
        fill: url(#linear-gradient-13);
      }
    </style>
    <linearGradient id="linear-gradient" x1="182.39" y1="46.73" x2="982.67" y2="26.8" gradientUnits="userSpaceOnUse">
      <stop offset=".06" stop-color="#0e009d"/>
      <stop offset=".51" stop-color="#2bb6d6"/>
      <stop offset="1" stop-color="#bf00db"/>
    </linearGradient>
    <linearGradient id="linear-gradient-2" x1="182.6" y1="55.17" x2="982.88" y2="35.24" xlink:href="#linear-gradient"/>
    <linearGradient id="linear-gradient-3" x1="182.64" y1="56.41" x2="982.91" y2="36.48" xlink:href="#linear-gradient"/>
    <linearGradient id="linear-gradient-4" x1="182.66" y1="57.51" x2="982.94" y2="37.59" xlink:href="#linear-gradient"/>
    <linearGradient id="linear-gradient-5" x1="182.7" y1="58.89" x2="982.98" y2="38.96" xlink:href="#linear-gradient"/>
    <linearGradient id="linear-gradient-6" x1="182.45" y1="49.09" x2="982.73" y2="29.16" xlink:href="#linear-gradient"/>
    <linearGradient id="linear-gradient-7" x1="182.75" y1="61.06" x2="983.03" y2="41.14" xlink:href="#linear-gradient"/>
    <linearGradient id="linear-gradient-8" x1="183" y1="71.05" x2="983.28" y2="51.12" xlink:href="#linear-gradient"/>
    <linearGradient id="linear-gradient-9" x1="184.34" y1="124.75" x2="984.62" y2="104.82" xlink:href="#linear-gradient"/>
    <linearGradient id="linear-gradient-10" x1="184.55" y1="133.31" x2="984.83" y2="113.38" xlink:href="#linear-gradient"/>
    <linearGradient id="linear-gradient-11" x1="184.59" y1="134.79" x2="984.87" y2="114.86" xlink:href="#linear-gradient"/>
    <linearGradient id="linear-gradient-12" x1="184.62" y1="136.26" x2="984.9" y2="116.33" xlink:href="#linear-gradient"/>
    <linearGradient id="linear-gradient-13" x1="4.95" y1="69.12" x2="175.18" y2="69.12" xlink:href="#linear-gradient"/>
    <linearGradient id="linear-gradient-14" x1="35.79" y1="123.89" x2="144.3" y2="123.89" xlink:href="#linear-gradient"/>
  </defs>
  <g>
    <path class="cls-10" d="m209.74,76.33V14.65h14.36v50.05h30.75v11.63h-45.12Z"/>
    <path class="cls-1" d="m285.61,77.03c-5.41,0-10.13-1.06-14.19-3.17-4.05-2.11-7.2-5.01-9.43-8.68-2.23-3.67-3.35-7.86-3.35-12.56s1.07-8.9,3.22-12.6c2.14-3.7,5.14-6.59,8.99-8.68,3.85-2.08,8.18-3.13,13-3.13s8.83,1,12.56,3c3.73,2,6.68,4.82,8.85,8.46,2.17,3.64,3.26,8.02,3.26,13.13,0,.53-.03,1.13-.09,1.81-.06.68-.12,1.31-.18,1.89h-38.51v-8.02h31.28l-5.38,2.38c.06-2.47-.41-4.61-1.41-6.43-1-1.82-2.38-3.25-4.14-4.27-1.76-1.03-3.82-1.54-6.17-1.54s-4.42.52-6.21,1.54c-1.79,1.03-3.19,2.47-4.18,4.32-1,1.85-1.5,4.04-1.5,6.56v2.11c0,2.64.59,4.93,1.76,6.87,1.17,1.94,2.79,3.42,4.85,4.45,2.06,1.03,4.52,1.54,7.4,1.54,2.47,0,4.66-.38,6.56-1.14s3.66-1.91,5.24-3.44l7.31,7.93c-2.17,2.47-4.91,4.36-8.2,5.68-3.29,1.32-7.08,1.98-11.37,1.98Z"/>
    <path class="cls-9" d="m332.31,77.03c-3.64,0-6.78-.63-9.43-1.89-2.64-1.26-4.68-2.98-6.12-5.15-1.44-2.17-2.16-4.61-2.16-7.31s.69-5.21,2.07-7.36c1.38-2.14,3.57-3.8,6.56-4.98,3-1.17,6.93-1.76,11.81-1.76h12.51v7.93h-11.1c-3.23,0-5.45.53-6.65,1.59-1.2,1.06-1.81,2.38-1.81,3.97,0,1.76.69,3.16,2.07,4.19,1.38,1.03,3.25,1.54,5.6,1.54s4.45-.53,6.3-1.59,3.16-2.67,3.92-4.85l2.11,6.43c-1,2.94-2.82,5.21-5.46,6.83-2.64,1.62-6.05,2.42-10.22,2.42Zm14.45-.7v-9.25l-.88-2.03v-16.57c0-2.94-.9-5.23-2.69-6.87-1.79-1.64-4.54-2.47-8.24-2.47-2.53,0-5.01.4-7.44,1.19-2.44.79-4.54,1.86-6.3,3.22l-4.85-9.6c2.58-1.88,5.7-3.3,9.34-4.27,3.64-.97,7.34-1.45,11.1-1.45,7.23,0,12.83,1.7,16.83,5.11,3.99,3.41,5.99,8.72,5.99,15.95v27.05h-12.86Z"/>
    <path class="cls-11" d="m372.05,76.33V28.92h13.13v13.48l-1.85-3.96c1.41-3.35,3.67-5.89,6.79-7.62,3.11-1.73,6.9-2.6,11.37-2.6v12.78c-.53-.12-1.04-.21-1.54-.26-.5-.06-.98-.09-1.45-.09-3.88,0-6.96,1.09-9.25,3.26-2.29,2.17-3.44,5.52-3.44,10.04v22.38h-13.75Z"/>
    <path class="cls-6" d="m438.84,28.22c3.76,0,7.12.75,10.09,2.25,2.97,1.5,5.3,3.79,7,6.87,1.7,3.08,2.56,7.04,2.56,11.85v27.14h-13.75v-25.02c0-3.82-.84-6.64-2.51-8.46s-4.04-2.73-7.09-2.73c-2.17,0-4.13.47-5.86,1.41-1.73.94-3.08,2.32-4.05,4.14-.97,1.82-1.45,4.23-1.45,7.23v23.44h-13.75V28.92h13.13v13.13l-2.47-3.96c1.7-3.17,4.14-5.61,7.31-7.31,3.17-1.7,6.78-2.55,10.84-2.55Z"/>
    <path class="cls-3" d="m477.7,22.31c-2.59,0-4.67-.73-6.26-2.2-1.59-1.47-2.38-3.29-2.38-5.46s.79-3.99,2.38-5.46c1.59-1.47,3.67-2.2,6.26-2.2s4.6.69,6.21,2.07c1.62,1.38,2.42,3.16,2.42,5.33,0,2.29-.79,4.19-2.38,5.68-1.59,1.5-3.67,2.25-6.26,2.25Zm-6.87,54.02V28.92h13.75v47.41h-13.75Z"/>
    <path class="cls-7" d="m526.16,28.22c3.76,0,7.12.75,10.09,2.25,2.97,1.5,5.3,3.79,7,6.87,1.7,3.08,2.56,7.04,2.56,11.85v27.14h-13.75v-25.02c0-3.82-.84-6.64-2.51-8.46s-4.04-2.73-7.09-2.73c-2.17,0-4.13.47-5.86,1.41-1.73.94-3.08,2.32-4.05,4.14-.97,1.82-1.45,4.23-1.45,7.23v23.44h-13.75V28.92h13.13v13.13l-2.47-3.96c1.7-3.17,4.14-5.61,7.31-7.31,3.17-1.7,6.78-2.55,10.84-2.55Z"/>
    <path class="cls-12" d="m578.24,74.04c-4.29,0-8.23-.95-11.81-2.86-3.58-1.91-6.43-4.58-8.55-8.02-2.11-3.44-3.17-7.45-3.17-12.03s1.06-8.68,3.17-12.12c2.11-3.44,4.96-6.09,8.55-7.98,3.58-1.88,7.52-2.82,11.81-2.82s7.68.81,10.71,2.42c3.03,1.62,5.39,4.13,7.09,7.53,1.7,3.41,2.56,7.72,2.56,12.95s-.85,9.53-2.56,12.91c-1.7,3.38-4.07,5.89-7.09,7.53-3.03,1.65-6.6,2.47-10.71,2.47Zm2.2,20.09c-4.46,0-8.77-.54-12.91-1.63-4.14-1.09-7.59-2.72-10.35-4.89l5.46-9.96c2.06,1.7,4.6,3.04,7.62,4.01,3.03.97,6.09,1.45,9.21,1.45,4.82,0,8.34-1.09,10.57-3.26,2.23-2.17,3.35-5.4,3.35-9.69v-7.05l.88-11.98-.26-12.07v-10.13h13.04v39.48c0,8.75-2.29,15.23-6.87,19.43-4.58,4.2-11.16,6.3-19.74,6.3Zm.62-31.28c2.41,0,4.55-.5,6.43-1.5,1.88-1,3.35-2.38,4.41-4.14,1.06-1.76,1.59-3.79,1.59-6.08s-.53-4.39-1.59-6.12c-1.06-1.73-2.53-3.07-4.41-4.01-1.88-.94-4.02-1.41-6.43-1.41s-4.48.47-6.39,1.41c-1.91.94-3.41,2.28-4.49,4.01-1.09,1.73-1.63,3.78-1.63,6.12s.54,4.32,1.63,6.08c1.09,1.76,2.59,3.14,4.49,4.14,1.91,1,4.04,1.5,6.39,1.5Z"/>
    <path class="cls-8" d="m205.77,154.38v-9.25l38.16-46,1.76,5.2h-39.21v-11.63h51.9v9.25l-38.07,46-1.76-5.2h41.15v11.63h-53.93Z"/>
    <path class="cls-5" d="m290.36,155.08c-4.99,0-9.44-1.06-13.35-3.17-3.91-2.11-6.98-5.01-9.21-8.68-2.23-3.67-3.35-7.86-3.35-12.56s1.11-8.97,3.35-12.64c2.23-3.67,5.3-6.55,9.21-8.64,3.91-2.08,8.36-3.13,13.35-3.13s9.55,1.04,13.48,3.13c3.93,2.09,7.02,4.97,9.25,8.64,2.23,3.67,3.35,7.89,3.35,12.64s-1.12,8.96-3.35,12.6c-2.23,3.64-5.32,6.52-9.25,8.64-3.94,2.11-8.43,3.17-13.48,3.17Zm0-11.28c2.35,0,4.42-.51,6.21-1.54,1.79-1.03,3.23-2.54,4.32-4.54,1.09-2,1.63-4.35,1.63-7.05s-.54-5.11-1.63-7.05c-1.09-1.94-2.53-3.42-4.32-4.45-1.79-1.03-3.83-1.54-6.12-1.54s-4.35.52-6.17,1.54c-1.82,1.03-3.27,2.51-4.36,4.45-1.09,1.94-1.63,4.29-1.63,7.05s.54,5.05,1.63,7.05c1.09,2,2.54,3.51,4.36,4.54,1.82,1.03,3.85,1.54,6.08,1.54Z"/>
    <path class="cls-4" d="m354.42,106.26c3.76,0,7.12.75,10.09,2.25,2.97,1.5,5.3,3.79,7,6.87,1.7,3.08,2.56,7.04,2.56,11.85v27.14h-13.75v-25.02c0-3.82-.84-6.64-2.51-8.46s-4.04-2.73-7.09-2.73c-2.17,0-4.13.47-5.86,1.41-1.73.94-3.08,2.32-4.05,4.14-.97,1.82-1.45,4.23-1.45,7.23v23.44h-13.75v-47.41h13.13v13.13l-2.47-3.96c1.7-3.17,4.14-5.61,7.31-7.31,3.17-1.7,6.78-2.55,10.84-2.55Z"/>
    <path class="cls-13" d="m409.94,155.08c-5.41,0-10.13-1.06-14.19-3.17-4.05-2.11-7.2-5.01-9.43-8.68-2.23-3.67-3.35-7.86-3.35-12.56s1.07-8.9,3.22-12.6c2.14-3.7,5.14-6.59,8.99-8.68,3.85-2.08,8.18-3.13,13-3.13s8.83,1,12.56,3c3.73,2,6.68,4.82,8.86,8.46,2.17,3.64,3.26,8.02,3.26,13.13,0,.53-.03,1.13-.09,1.81-.06.68-.12,1.31-.18,1.89h-38.51v-8.02h31.28l-5.37,2.38c.06-2.47-.41-4.61-1.41-6.43-1-1.82-2.38-3.25-4.14-4.27-1.76-1.03-3.82-1.54-6.17-1.54s-4.42.52-6.21,1.54c-1.79,1.03-3.19,2.47-4.19,4.32-1,1.85-1.5,4.04-1.5,6.56v2.11c0,2.64.59,4.93,1.76,6.87s2.79,3.42,4.85,4.45c2.06,1.03,4.52,1.54,7.4,1.54,2.47,0,4.65-.38,6.56-1.14,1.91-.76,3.66-1.91,5.24-3.44l7.31,7.93c-2.17,2.47-4.9,4.36-8.19,5.68-3.29,1.32-7.08,1.98-11.37,1.98Z"/>
  </g>
  <g>
    <path class="cls-14" d="m175.17,123.18h-15.32v-53.51c-.61.3-1.04.49-1.44.71-22.27,12.15-44.54,24.29-66.79,36.47-1.1.6-1.93.7-3.1.06-27.38-15-54.78-29.94-82.18-44.9-.41-.22-.81-.47-1.38-.8,2.25-1.24,4.38-2.41,6.51-3.58,25.7-14.03,51.4-28.06,77.09-42.11,1.05-.57,1.82-.61,2.9-.03,27.55,15.08,55.12,30.12,82.7,45.14.77.42,1.04.87,1.04,1.74-.02,19.84-.02,39.67-.02,59.51v1.31Z"/>
    <path class="cls-2" d="m35.91,93.79c2.44,1.33,4.75,2.59,7.06,3.86,15.33,8.38,30.67,16.75,45.99,25.16.8.44,1.37.4,2.15-.02,17.26-9.46,34.54-18.88,51.82-28.32.38-.21.76-.39,1.27-.64.03.42.07.75.07,1.08,0,9.56,0,19.12.02,28.69,0,.79-.27,1.17-.93,1.53-17.46,9.51-34.92,19.03-52.36,28.58-.71.39-1.24.4-1.95.01-17.4-9.54-34.82-19.05-52.24-28.56-.57-.31-1.02-.56-1.01-1.39.04-9.8.02-19.6.03-29.4,0-.12.03-.23.09-.57Z"/>
  </g>
</svg>