<?xml version="1.0" encoding="UTF-8"?>
<svg id="Layer_1" data-name="Layer 1" xmlns="http://www.w3.org/2000/svg" xmlns:xlink="http://www.w3.org/1999/xlink" viewBox="0 0 612 792">
  <defs>
    <style>
      .cls-1 {
        fill: url(#linear-gradient-2);
      }

      .cls-2 {
        fill: url(#linear-gradient-14);
      }

      .cls-3 {
        fill: url(#linear-gradient-6);
      }

      .cls-4 {
        fill: #192441;
        font-family: MontserratRoman-Bold, Montserrat;
        font-size: 70px;
        font-variation-settings: 'wght' 700;
        font-weight: 700;
      }

      .cls-5 {
        fill: url(#linear-gradient-11);
      }

      .cls-6 {
        fill: url(#linear-gradient-10);
      }

      .cls-7 {
        fill: url(#linear-gradient-5);
      }

      .cls-8 {
        fill: url(#linear-gradient-7);
      }

      .cls-9 {
        fill: url(#linear-gradient-9);
      }

      .cls-10 {
        fill: url(#linear-gradient-3);
      }

      .cls-11 {
        fill: url(#linear-gradient);
      }

      .cls-12 {
        fill: url(#linear-gradient-4);
      }

      .cls-13 {
        fill: url(#linear-gradient-8);
      }

      .cls-14 {
        fill: url(#linear-gradient-12);
      }

      .cls-15 {
        fill: url(#linear-gradient-13);
      }
    </style>
    <linearGradient id="linear-gradient" x1="207.81" y1="140.5" x2="843.55" y2="124.67" gradientUnits="userSpaceOnUse">
      <stop offset=".06" stop-color="#0e009d"/>
      <stop offset=".51" stop-color="#2bb6d6"/>
      <stop offset="1" stop-color="#bf00db"/>
    </linearGradient>
    <linearGradient id="linear-gradient-2" x1="207.97" y1="147.2" x2="843.72" y2="131.37" xlink:href="#linear-gradient"/>
    <linearGradient id="linear-gradient-3" x1="208" y1="148.18" x2="843.74" y2="132.35" xlink:href="#linear-gradient"/>
    <linearGradient id="linear-gradient-4" x1="208.02" y1="149.06" x2="843.77" y2="133.23" xlink:href="#linear-gradient"/>
    <linearGradient id="linear-gradient-5" x1="208.05" y1="150.16" x2="843.79" y2="134.33" xlink:href="#linear-gradient"/>
    <linearGradient id="linear-gradient-6" x1="207.85" y1="142.37" x2="843.6" y2="126.54" xlink:href="#linear-gradient"/>
    <linearGradient id="linear-gradient-7" x1="208.09" y1="151.88" x2="843.84" y2="136.05" xlink:href="#linear-gradient"/>
    <linearGradient id="linear-gradient-8" x1="208.29" y1="159.81" x2="844.03" y2="143.98" xlink:href="#linear-gradient"/>
    <linearGradient id="linear-gradient-9" x1="209.35" y1="202.47" x2="845.1" y2="186.64" xlink:href="#linear-gradient"/>
    <linearGradient id="linear-gradient-10" x1="209.52" y1="209.27" x2="845.26" y2="193.44" xlink:href="#linear-gradient"/>
    <linearGradient id="linear-gradient-11" x1="209.55" y1="210.45" x2="845.29" y2="194.62" xlink:href="#linear-gradient"/>
    <linearGradient id="linear-gradient-12" x1="209.58" y1="211.62" x2="845.32" y2="195.79" xlink:href="#linear-gradient"/>
    <linearGradient id="linear-gradient-13" x1="66.85" y1="158.28" x2="202.08" y2="158.28" xlink:href="#linear-gradient"/>
    <linearGradient id="linear-gradient-14" x1="91.35" y1="201.79" x2="177.54" y2="201.79" xlink:href="#linear-gradient"/>
  </defs>
  <g>
    <g>
      <path class="cls-11" d="m229.53,164.01v-49h11.41v39.76h24.43v9.24h-35.84Z"/>
      <path class="cls-1" d="m289.8,164.57c-4.29,0-8.05-.84-11.27-2.52-3.22-1.68-5.72-3.98-7.49-6.9-1.77-2.92-2.66-6.24-2.66-9.97s.85-7.07,2.55-10.01c1.7-2.94,4.08-5.24,7.14-6.9,3.06-1.66,6.5-2.48,10.33-2.48s7.01.79,9.98,2.38c2.96,1.59,5.31,3.83,7.03,6.72,1.73,2.89,2.59,6.37,2.59,10.43,0,.42-.02.9-.07,1.44-.05.54-.09,1.04-.14,1.5h-30.59v-6.37h24.85l-4.27,1.89c.05-1.96-.33-3.66-1.12-5.11-.79-1.45-1.89-2.58-3.29-3.4-1.4-.82-3.03-1.22-4.9-1.22s-3.51.41-4.94,1.22c-1.42.82-2.53,1.96-3.32,3.43-.79,1.47-1.19,3.21-1.19,5.21v1.68c0,2.1.47,3.92,1.4,5.46.93,1.54,2.22,2.72,3.85,3.54,1.63.82,3.59,1.22,5.88,1.22,1.96,0,3.7-.3,5.21-.91s2.91-1.52,4.17-2.73l5.81,6.3c-1.73,1.96-3.9,3.46-6.51,4.52-2.61,1.05-5.62,1.57-9.03,1.57Z"/>
      <path class="cls-10" d="m326.9,164.57c-2.89,0-5.39-.5-7.49-1.5-2.1-1-3.72-2.37-4.86-4.09-1.14-1.73-1.72-3.66-1.72-5.81s.55-4.14,1.65-5.85c1.1-1.7,2.83-3.02,5.21-3.96,2.38-.93,5.51-1.4,9.38-1.4h9.94v6.3h-8.82c-2.57,0-4.33.42-5.29,1.26-.96.84-1.43,1.89-1.43,3.15,0,1.4.55,2.51,1.64,3.33,1.1.82,2.58,1.22,4.45,1.22s3.54-.42,5-1.26,2.51-2.12,3.12-3.85l1.68,5.11c-.79,2.33-2.24,4.14-4.34,5.42-2.1,1.28-4.81,1.92-8.12,1.92Zm11.48-.56v-7.35l-.7-1.61v-13.16c0-2.33-.71-4.15-2.13-5.46-1.42-1.31-3.61-1.96-6.55-1.96-2.01,0-3.98.32-5.91.95-1.94.63-3.61,1.48-5.01,2.55l-3.85-7.63c2.05-1.49,4.53-2.62,7.42-3.4,2.89-.77,5.83-1.15,8.82-1.15,5.74,0,10.2,1.35,13.37,4.06,3.17,2.71,4.76,6.93,4.76,12.67v21.49h-10.22Z"/>
      <path class="cls-12" d="m358.47,164.01v-37.66h10.43v10.71l-1.47-3.15c1.12-2.66,2.92-4.68,5.39-6.06,2.47-1.38,5.48-2.06,9.03-2.06v10.15c-.42-.09-.83-.16-1.22-.21-.4-.05-.78-.07-1.16-.07-3.08,0-5.53.86-7.35,2.59-1.82,1.73-2.73,4.39-2.73,7.98v17.78h-10.92Z"/>
      <path class="cls-7" d="m411.53,125.79c2.99,0,5.66.59,8.01,1.79,2.36,1.19,4.21,3.01,5.56,5.46,1.35,2.45,2.03,5.59,2.03,9.42v21.56h-10.92v-19.88c0-3.03-.67-5.27-2-6.72s-3.21-2.17-5.63-2.17c-1.73,0-3.28.37-4.66,1.12-1.38.75-2.45,1.84-3.22,3.29-.77,1.45-1.16,3.36-1.16,5.74v18.62h-10.92v-37.66h10.43v10.43l-1.96-3.15c1.35-2.52,3.29-4.46,5.81-5.81,2.52-1.35,5.39-2.03,8.61-2.03Z"/>
      <path class="cls-3" d="m442.4,121.1c-2.05,0-3.71-.58-4.97-1.75-1.26-1.17-1.89-2.61-1.89-4.34s.63-3.17,1.89-4.34c1.26-1.17,2.92-1.75,4.97-1.75s3.65.55,4.93,1.64c1.28,1.1,1.92,2.51,1.92,4.24,0,1.82-.63,3.33-1.89,4.51-1.26,1.19-2.92,1.79-4.97,1.79Zm-5.46,42.91v-37.66h10.92v37.66h-10.92Z"/>
      <path class="cls-8" d="m480.9,125.79c2.99,0,5.66.59,8.02,1.79,2.36,1.19,4.21,3.01,5.56,5.46,1.35,2.45,2.03,5.59,2.03,9.42v21.56h-10.92v-19.88c0-3.03-.67-5.27-2-6.72s-3.21-2.17-5.63-2.17c-1.73,0-3.28.37-4.66,1.12-1.38.75-2.45,1.84-3.22,3.29-.77,1.45-1.16,3.36-1.16,5.74v18.62h-10.92v-37.66h10.43v10.43l-1.96-3.15c1.35-2.52,3.29-4.46,5.81-5.81,2.52-1.35,5.39-2.03,8.61-2.03Z"/>
      <path class="cls-13" d="m522.27,162.19c-3.41,0-6.53-.76-9.38-2.27-2.85-1.52-5.11-3.64-6.79-6.37-1.68-2.73-2.52-5.92-2.52-9.55s.84-6.9,2.52-9.62c1.68-2.73,3.94-4.84,6.79-6.34,2.85-1.49,5.97-2.24,9.38-2.24s6.1.64,8.5,1.92c2.4,1.28,4.28,3.28,5.63,5.99,1.35,2.71,2.03,6.14,2.03,10.29s-.68,7.57-2.03,10.25-3.23,4.68-5.63,5.98c-2.4,1.31-5.24,1.96-8.5,1.96Zm1.75,15.96c-3.55,0-6.96-.43-10.25-1.29-3.29-.86-6.03-2.16-8.23-3.88l4.34-7.91c1.63,1.35,3.65,2.42,6.05,3.19,2.4.77,4.84,1.15,7.32,1.15,3.83,0,6.62-.86,8.4-2.59,1.77-1.73,2.66-4.29,2.66-7.7v-5.6l.7-9.52-.21-9.59v-8.05h10.36v31.36c0,6.95-1.82,12.1-5.46,15.43-3.64,3.34-8.87,5-15.68,5Zm.49-24.85c1.91,0,3.62-.4,5.11-1.19,1.49-.79,2.66-1.89,3.5-3.29.84-1.4,1.26-3.01,1.26-4.83s-.42-3.49-1.26-4.87c-.84-1.38-2.01-2.44-3.5-3.19-1.49-.75-3.2-1.12-5.11-1.12s-3.56.37-5.08,1.12c-1.52.75-2.71,1.81-3.57,3.19-.86,1.38-1.29,3-1.29,4.87s.43,3.43,1.29,4.83c.86,1.4,2.05,2.5,3.57,3.29,1.52.79,3.21,1.19,5.08,1.19Z"/>
      <path class="cls-9" d="m226.38,226.01v-7.35l30.31-36.54,1.4,4.13h-31.15v-9.24h41.23v7.35l-30.24,36.54-1.4-4.13h32.69v9.24h-42.84Z"/>
      <path class="cls-6" d="m293.58,226.57c-3.97,0-7.5-.84-10.6-2.52-3.1-1.68-5.54-3.98-7.32-6.9-1.77-2.92-2.66-6.24-2.66-9.97s.89-7.13,2.66-10.04c1.77-2.92,4.21-5.2,7.32-6.86,3.1-1.66,6.64-2.48,10.6-2.48s7.58.83,10.71,2.48c3.13,1.66,5.58,3.94,7.35,6.86,1.77,2.92,2.66,6.26,2.66,10.04s-.89,7.12-2.66,10.01c-1.77,2.89-4.22,5.18-7.35,6.86-3.13,1.68-6.7,2.52-10.71,2.52Zm0-8.96c1.87,0,3.51-.41,4.94-1.22,1.42-.82,2.57-2.02,3.43-3.61.86-1.59,1.29-3.45,1.29-5.6s-.43-4.06-1.29-5.6c-.86-1.54-2.01-2.72-3.43-3.54-1.42-.82-3.05-1.23-4.87-1.23s-3.45.41-4.9,1.23c-1.45.82-2.6,2-3.46,3.54-.86,1.54-1.29,3.41-1.29,5.6s.43,4.01,1.29,5.6c.86,1.59,2.02,2.79,3.46,3.61,1.45.82,3.06,1.22,4.83,1.22Z"/>
      <path class="cls-5" d="m344.47,187.79c2.99,0,5.66.59,8.01,1.79,2.36,1.19,4.21,3.01,5.56,5.46,1.35,2.45,2.03,5.59,2.03,9.42v21.56h-10.92v-19.88c0-3.03-.67-5.27-2-6.72s-3.21-2.17-5.63-2.17c-1.73,0-3.28.37-4.66,1.12-1.38.75-2.45,1.84-3.22,3.29-.77,1.45-1.16,3.36-1.16,5.74v18.62h-10.92v-37.66h10.43v10.43l-1.96-3.15c1.35-2.52,3.29-4.46,5.81-5.81,2.52-1.35,5.39-2.03,8.61-2.03Z"/>
      <path class="cls-14" d="m388.57,226.57c-4.29,0-8.05-.84-11.27-2.52s-5.72-3.98-7.49-6.9c-1.77-2.92-2.66-6.24-2.66-9.97s.85-7.07,2.56-10.01c1.7-2.94,4.08-5.24,7.14-6.9,3.06-1.66,6.5-2.48,10.33-2.48s7.01.79,9.97,2.38c2.96,1.59,5.31,3.83,7.04,6.72,1.73,2.89,2.59,6.37,2.59,10.43,0,.42-.02.9-.07,1.44-.05.54-.09,1.04-.14,1.5h-30.59v-6.37h24.85l-4.27,1.89c.05-1.96-.33-3.66-1.12-5.11-.79-1.45-1.89-2.58-3.29-3.4-1.4-.82-3.03-1.22-4.9-1.22s-3.51.41-4.93,1.22c-1.42.82-2.53,1.96-3.33,3.43-.79,1.47-1.19,3.21-1.19,5.21v1.68c0,2.1.47,3.92,1.4,5.46s2.22,2.72,3.85,3.54c1.63.82,3.59,1.22,5.88,1.22,1.96,0,3.7-.3,5.21-.91,1.52-.61,2.91-1.52,4.17-2.73l5.81,6.3c-1.73,1.96-3.9,3.46-6.51,4.52-2.61,1.05-5.62,1.57-9.03,1.57Z"/>
    </g>
    <g>
      <path class="cls-15" d="m202.07,201.23h-12.17v-42.51c-.49.24-.82.39-1.15.56-17.69,9.65-35.38,19.3-53.06,28.97-.88.48-1.53.55-2.47.04-21.75-11.91-43.52-23.79-65.28-35.67-.33-.18-.65-.37-1.1-.64,1.79-.98,3.48-1.92,5.18-2.84,20.42-11.15,40.83-22.29,61.24-33.46.83-.45,1.45-.49,2.3-.02,21.89,11.98,43.79,23.93,65.7,35.86.61.33.82.69.82,1.38-.02,15.76-.01,31.52-.01,47.27v1.04Z"/>
      <path class="cls-2" d="m91.44,177.88c1.94,1.06,3.77,2.06,5.61,3.06,12.18,6.66,24.37,13.31,36.54,19.99.64.35,1.09.32,1.71-.02,13.72-7.51,27.44-15,41.17-22.5.3-.16.61-.31,1.01-.51.02.33.06.59.06.85,0,7.6,0,15.19.02,22.79,0,.63-.21.93-.74,1.22-13.87,7.55-27.74,15.12-41.6,22.7-.56.31-.98.32-1.55,0-13.83-7.58-27.66-15.13-41.5-22.69-.45-.25-.81-.45-.81-1.1.03-7.78.02-15.57.02-23.35,0-.09.03-.18.07-.45Z"/>
    </g>
  </g>
  <text class="cls-4" transform="translate(-578.39 598.22)"><tspan x="0" y="0">Learning</tspan><tspan x="0" y="62">Zone</tspan></text>
</svg>